<!-- icon666.com - MILLIONS vector ICONS FREE --><svg clip-rule="evenodd" fill-rule="evenodd" image-rendering="optimizeQuality" shape-rendering="geometricPrecision" text-rendering="geometricPrecision" viewBox="0 0 512 512" xmlns="http://www.w3.org/2000/svg"><g id="Layer_x0020_1"><path d="m505 35c4 0 7 3 7 7v428c0 4-4 7-7 7h-498c-4 0-7-3-7-7v-428c0-4 3-7 7-7zm-112 355c10 0 10 15-1 15h-273c-10 0-10-15 0-15zm0-41c10 0 9 15-1 15h-273c-10 0-10-15 0-15zm0-42c10 0 9 15-1 15h-273c-10 0-10-15 0-15zm0-117c23 0 43 19 43 43 0 23-19 42-43 42h-275c-23 0-42-19-42-42 0-24 19-43 42-43zm0 70c15 0 28-12 28-28 0-15-13-28-28-28h-275c-15 0-28 13-28 28 0 16 13 28 28 28zm-193-169h-28c-10 0-10-15 0-15h28c10 0 10 15 0 15zm-58 0h-29c-9 0-9-15 0-15h29c10 0 10 15 0 15zm-58 0h-28c-10 0-10-15 0-15h28c10 0 10 15 0 15zm413 372v-331h-483v331zm0-346v-68h-483v68z" fill="#4d4d4d"></path><path d="m393 204h-275c-15 0-28 13-28 28 0 16 13 28 28 28h275c15 0 28-12 28-28 0-15-13-28-28-28z" fill="#ffe600"></path><path d="m118 190h275c23 0 43 19 43 43 0 23-19 42-43 42h-275c-23 0-42-19-42-42 0-24 19-43 42-43zm379-58h-483v331h483zm-378 175h274c10 0 9 15-1 15h-273c-10 0-10-15 0-15zm0 42h274c10 0 9 15-1 15h-273c-10 0-10-15 0-15zm274 41c10 0 10 15-1 15h-273c-10 0-10-15 0-15z" fill="#f1f1f1"></path><path d="m14 117h483v-68h-483zm186-41c10 0 10 15 0 15h-28c-10 0-10-15 0-15zm-58 0c10 0 10 15 0 15h-29c-9 0-9-15 0-15zm-58 0c10 0 10 15 0 15h-28c-10 0-10-15 0-15z" fill="#99a4ac"></path></g></svg>